<?xml version="1.0" encoding="UTF-8"?>
<svg id="_레이어_2" data-name="레이어 2" xmlns="http://www.w3.org/2000/svg" viewBox="0 0 282.43 53.79">
  <defs>
    <style>
      .cls-1 {
        fill: #231815;
      }

      .cls-1, .cls-2 {
        stroke-width: 0px;
      }

      .cls-2 {
        fill: #405E98;
      }
    </style>
  </defs>
  <g id="_레이어_1-2" data-name="레이어 1">
    <g>
      <path class="cls-1" d="M0,0h9.42v23.88h.27c1.08-1.84,2.68-3.29,4.81-4.34s4.58-1.58,7.36-1.58c2.99,0,5.54.58,7.66,1.74s3.73,2.83,4.83,5.01c1.09,2.18,1.64,4.77,1.64,7.77v20.32h-9.5v-19c.03-2.67-.64-4.74-1.99-6.2s-3.29-2.2-5.81-2.22c-1.72.02-3.28.38-4.67,1.08s-2.5,1.79-3.34,3.25c-.84,1.47-1.25,3.29-1.25,5.46v17.62H0V0Z"/>
      <path class="cls-1" d="M66.55,52.88v-4.8h-.26c-1.08,1.88-2.49,3.3-4.22,4.27-1.73.96-3.74,1.44-6.03,1.44-3.01,0-5.71-.77-8.09-2.3-2.39-1.54-4.27-3.64-5.63-6.33s-2.04-5.69-2.04-9.02.68-6.34,2.04-9.02,3.24-4.79,5.63-6.33c2.39-1.54,5.09-2.3,8.09-2.3,2.29,0,4.3.48,6.03,1.44,1.73.96,3.14,2.38,4.22,4.27h.26v-4.8h7.98v33.48h-7.98ZM62.35,45.14c1.4-.88,2.49-2.1,3.28-3.67.79-1.57,1.18-3.35,1.18-5.34s-.39-3.77-1.18-5.34c-.79-1.57-1.88-2.79-3.28-3.67s-2.98-1.31-4.75-1.31-3.4.44-4.8,1.33c-1.41.89-2.5,2.11-3.29,3.67-.79,1.56-1.18,3.33-1.18,5.32s.39,3.76,1.18,5.32c.79,1.56,1.89,2.78,3.29,3.67,1.41.89,3.01,1.33,4.8,1.33s3.36-.44,4.75-1.31Z"/>
      <path class="cls-1" d="M81.08,19.4h7.9v4.92h.23c.91-1.81,2.25-3.24,4.03-4.27s3.84-1.55,6.17-1.55c2.5,0,4.65.57,6.43,1.72s3.13,2.79,4.05,4.94c.92,2.15,1.38,4.7,1.38,7.66v20.01h-7.96v-18.71c.02-2.63-.53-4.67-1.67-6.1s-2.76-2.16-4.87-2.19c-1.45.02-2.75.38-3.92,1.07s-2.1,1.76-2.8,3.2c-.7,1.45-1.05,3.24-1.05,5.37v17.35h-7.9V19.4Z"/>
      <path class="cls-1" d="M191.2,52.88v-4.8h-.26c-1.08,1.88-2.49,3.3-4.22,4.27-1.73.96-3.74,1.44-6.03,1.44-3.01,0-5.71-.77-8.09-2.3-2.39-1.54-4.27-3.64-5.63-6.33s-2.04-5.69-2.04-9.02.68-6.34,2.04-9.02,3.24-4.79,5.63-6.33c2.39-1.54,5.09-2.3,8.09-2.3,2.29,0,4.3.48,6.03,1.44,1.73.96,3.14,2.38,4.22,4.27h.26v-4.8h7.98v33.48h-7.98ZM187,45.14c1.4-.88,2.49-2.1,3.28-3.67.79-1.57,1.18-3.35,1.18-5.34s-.39-3.77-1.18-5.34c-.79-1.57-1.88-2.79-3.28-3.67s-2.98-1.31-4.75-1.31-3.4.44-4.8,1.33c-1.41.89-2.5,2.11-3.29,3.67-.79,1.56-1.18,3.33-1.18,5.32s.39,3.76,1.18,5.32c.79,1.56,1.89,2.78,3.29,3.67,1.41.89,3.01,1.33,4.8,1.33s3.36-.44,4.75-1.31Z"/>
      <path class="cls-1" d="M205.73,19.4h7.9v4.92h.23c.91-1.81,2.25-3.24,4.03-4.27s3.84-1.55,6.17-1.55c2.5,0,4.65.57,6.43,1.72s3.13,2.79,4.05,4.94c.92,2.15,1.38,4.7,1.38,7.66v20.01h-7.96v-18.71c.02-2.63-.53-4.67-1.67-6.1s-2.76-2.16-4.87-2.19c-1.45.02-2.75.38-3.92,1.07s-2.1,1.76-2.8,3.2c-.7,1.45-1.05,3.24-1.05,5.37v17.35h-7.9V19.4Z"/>
      <path class="cls-1" d="M119.05,9.74c-.81-.45-1.45-1.07-1.92-1.86-.47-.8-.7-1.69-.7-2.67s.23-1.84.69-2.64,1.09-1.42,1.9-1.88,1.71-.69,2.69-.69,1.88.23,2.69.69,1.44,1.08,1.9,1.88.69,1.68.69,2.64-.23,1.84-.69,2.64-1.08,1.42-1.88,1.88c-.8.46-1.68.69-2.64.69s-1.92-.22-2.72-.67ZM117.41,18.49h8.58v34.31h-8.58V18.49Z"/>
      <path class="cls-1" d="M134.85,0h8.58v52.8h-8.58V0Z"/>
      <path class="cls-1" d="M153.92,9.74c-.81-.45-1.45-1.07-1.92-1.86-.47-.8-.7-1.69-.7-2.67s.23-1.84.69-2.64,1.09-1.42,1.9-1.88,1.71-.69,2.69-.69,1.88.23,2.69.69,1.44,1.08,1.9,1.88.69,1.68.69,2.64-.23,1.84-.69,2.64-1.08,1.42-1.88,1.88-1.68.69-2.64.69-1.92-.22-2.72-.67ZM152.29,18.49h8.58v34.31h-8.58V18.49Z"/>
      <path class="cls-1" d="M246.28,52.33c-2.27-.97-4.21-2.39-5.82-4.26l4.94-4.81c1.28,1.34,2.58,2.31,3.9,2.89s2.86.88,4.61.88c1.91,0,3.38-.34,4.42-1.01s1.56-1.61,1.56-2.83c0-.71-.18-1.31-.54-1.77s-.96-.89-1.8-1.27-2.04-.75-3.57-1.12l-1.69-.45c-7.13-1.69-10.68-4.92-10.66-9.68,0-1.97.56-3.75,1.67-5.34s2.66-2.84,4.63-3.75,4.18-1.36,6.63-1.36,4.69.47,6.86,1.41,4.06,2.29,5.69,4.05l-4.87,4.81c-1.1-1.17-2.29-2.05-3.54-2.63s-2.63-.88-4.13-.88c-1.6,0-2.89.31-3.87.94s-1.46,1.46-1.46,2.5c0,.56.15,1.03.44,1.4s.78.7,1.46,1.01,1.65.61,2.91.91l1.75.45c4.05.97,7.02,2.31,8.92,4.01s2.84,3.87,2.84,6.51c0,2.12-.57,4.01-1.72,5.65s-2.77,2.92-4.86,3.83-4.49,1.36-7.2,1.36-5.23-.49-7.51-1.46Z"/>
      <path class="cls-2" d="M274.51,53.12c-.81-.45-1.45-1.07-1.92-1.86-.47-.8-.7-1.69-.7-2.67s.23-1.84.69-2.64,1.09-1.42,1.9-1.88,1.71-.69,2.69-.69,1.88.23,2.69.69,1.44,1.08,1.9,1.88.69,1.68.69,2.64-.23,1.84-.69,2.64-1.08,1.42-1.88,1.88c-.8.46-1.68.69-2.64.69s-1.92-.22-2.72-.67Z"/>
    </g>
  </g>
</svg>